P2
10 10
255
0 0 0 0 0 0 200 0 0 0 
0 0 0 255 255 0 150 150 0 0 
0 0 255 255 0 0 0 150 150 0 
0 255 255 0 255 255 255 0 150 0 
0 255 0 255 255 0 255 255 150 0 
0 255 255 255 0 0 0 0 150 0 
0 0 0 0 150 150 150 0 150 0 
100 150 0 150 150 0 150 0 150 0 
0 150 150 150 0 255 150 150 150 0 
0 0 0 0 0 0 0 0 0 0 
