P2
10 10
255
0 0 0 0 0 0 0 0 0 0 
0 150 150 150 0 150 150 150 0 0 
0 150 0 150 0 150 0 150 150 0 
200 150 0 150 0 150 0 0 150 0 
0 254 0 150 0 150 255 0 150 0 
0 254 0 150 150 150 0 0 150 0 
0 0 254 254 0 254 254 0 150 0 
100 150 0 0 0 0 0 150 150 0 
0 150 150 150 150 150 150 150 0 0 
0 0 0 0 0 0 0 0 0 0 
