P2
50 50
255
0 0 0 0 0 0 0 0 0 0 0 0 0 0 0 0 0 0 0 0 0 0 0 0 0 0 0 0 0 0 0 0 0 0 0 0 0 0 0 0 0 0 0 0 0 0 0 0 0 0 
0 255 255 255 0 255 255 255 255 0 0 0 255 0 255 255 255 0 255 255 0 0 255 255 255 0 255 255 255 255 0 255 255 255 0 0 255 255 255 0 255 255 0 255 255 255 255 0 255 0 
0 0 255 0 0 255 0 255 0 255 255 255 255 0 255 0 255 255 0 255 255 0 0 255 0 0 255 0 255 0 0 255 0 255 255 0 255 0 255 255 0 255 255 255 0 0 0 255 255 0 
0 255 255 255 0 255 0 255 0 255 0 255 0 0 255 0 0 255 0 0 255 0 255 255 255 0 255 0 255 255 0 255 0 0 255 0 255 0 0 255 0 255 0 255 0 255 255 255 0 0 
0 255 0 255 0 255 0 255 0 255 0 255 255 0 255 255 0 255 0 255 255 0 255 0 255 0 255 0 0 255 0 255 255 0 255 0 255 0 0 255 255 255 0 0 255 255 0 255 255 0 
0 255 0 255 0 255 0 255 0 255 0 0 255 255 0 255 0 255 0 0 255 0 255 0 255 0 255 0 0 255 0 255 0 0 255 0 255 255 0 0 255 0 255 255 255 0 0 0 255 0 
0 255 0 255 255 255 0 255 0 255 255 255 0 255 0 255 0 255 0 255 255 0 255 0 255 0 255 255 0 255 0 255 255 0 255 0 0 255 255 0 255 0 255 0 0 255 0 255 255 0 
0 0 0 255 0 0 0 255 0 255 0 0 0 255 0 255 0 255 255 255 0 255 255 0 255 0 255 0 0 255 255 0 255 0 255 255 0 255 0 0 255 0 255 0 255 255 0 255 0 0 
0 255 0 255 255 0 0 255 0 255 255 0 255 255 0 255 0 0 255 0 255 255 0 255 255 0 255 255 0 0 255 0 255 0 0 255 0 255 0 255 255 0 255 0 0 255 0 255 255 0 
0 255 255 255 0 0 255 255 0 255 0 0 255 0 255 255 0 255 255 0 255 0 255 255 0 255 0 255 0 0 255 0 255 0 0 255 0 255 0 255 0 0 255 255 0 255 255 0 255 0 
0 255 0 0 255 255 255 0 0 255 0 255 255 0 255 0 255 255 0 255 255 0 255 0 255 255 0 255 255 0 255 0 255 255 0 255 0 255 0 255 255 255 0 255 0 0 255 0 255 0 
0 255 255 0 255 0 255 0 255 255 0 255 0 255 255 0 255 0 0 255 0 0 255 255 255 0 0 255 0 0 255 0 255 0 0 255 0 255 0 0 255 0 0 255 0 0 255 0 255 0 
0 0 255 0 255 255 0 0 255 0 255 255 0 255 0 0 255 255 0 255 0 255 0 255 0 255 0 255 0 255 255 0 255 0 255 255 0 255 0 0 255 255 0 255 0 255 255 0 255 0 
0 255 255 0 0 255 255 0 255 0 255 0 0 255 0 0 0 255 0 255 0 255 0 255 255 255 0 255 0 255 0 255 255 0 255 0 255 255 255 0 0 255 0 255 0 255 0 255 255 0 
0 0 255 0 255 255 0 255 255 0 255 255 0 255 255 0 255 255 0 255 0 255 255 0 255 0 255 255 0 255 0 255 0 255 255 0 255 0 255 0 255 255 0 255 255 255 0 255 0 0 
0 255 255 0 255 0 0 255 0 0 0 255 0 255 0 0 255 0 255 255 255 255 0 0 255 255 255 0 0 255 0 255 0 255 0 0 255 0 0 0 255 0 0 0 255 0 0 255 255 0 
0 0 255 0 255 255 0 255 0 255 255 255 0 255 255 0 255 0 255 0 0 0 255 255 255 0 0 255 255 255 0 255 0 255 255 0 255 0 0 255 255 255 0 255 255 255 0 0 255 0 
0 255 255 255 0 255 0 255 255 0 0 255 0 255 0 0 255 0 255 0 255 255 255 0 0 255 255 255 0 255 0 255 0 0 255 0 255 255 0 0 0 255 0 255 0 255 255 0 255 0 
0 255 0 255 0 255 255 0 255 255 0 255 0 255 255 0 255 0 255 255 0 0 0 255 255 255 0 255 255 0 0 255 0 0 255 255 0 255 255 0 255 255 0 255 0 0 0 255 255 0 
0 255 0 255 0 0 255 0 255 0 0 255 255 0 255 0 255 255 0 255 255 0 255 255 0 255 255 0 0 255 0 255 0 255 0 255 0 255 0 0 255 0 255 255 0 255 255 255 0 0 
0 0 255 255 0 0 255 0 255 255 0 0 255 0 255 0 0 255 0 255 0 0 0 255 255 0 0 255 255 255 0 255 255 255 0 255 0 255 255 0 255 0 255 0 0 255 0 255 255 0 
0 255 255 0 255 255 255 0 0 255 0 0 255 0 255 0 255 255 0 255 255 0 255 0 255 255 0 0 255 0 0 255 0 0 0 255 0 0 255 0 255 0 255 0 0 255 0 0 0 0 
0 255 0 0 255 0 0 0 255 255 0 255 255 0 255 0 255 0 255 0 255 0 255 0 255 0 0 255 255 255 0 255 255 0 255 255 255 0 255 0 255 0 255 255 0 255 255 0 255 200 
0 255 255 0 255 255 0 255 255 0 255 255 0 255 255 0 255 255 255 0 255 255 255 0 255 255 0 255 0 255 0 255 0 0 255 0 0 255 255 0 255 255 0 255 0 0 255 255 255 0 
0 255 0 0 0 255 0 255 0 255 255 0 0 255 0 0 0 255 0 255 0 255 0 0 0 255 0 255 0 255 0 255 255 0 255 255 0 255 0 0 0 255 0 255 0 0 255 0 255 0 
0 255 255 0 0 255 0 255 0 255 0 255 0 255 255 255 0 255 255 255 0 255 0 0 0 255 0 255 0 255 0 255 0 0 0 255 0 255 0 255 0 255 0 255 255 0 255 255 0 0 
0 0 255 255 0 255 0 255 0 255 255 255 0 255 0 0 255 0 255 0 255 255 255 0 255 255 0 255 0 255 0 255 255 0 0 255 0 255 255 255 0 255 255 0 255 0 0 255 255 0 
0 0 255 0 0 255 0 255 0 0 255 0 0 255 0 255 255 0 255 0 255 0 0 255 255 0 255 255 0 255 255 0 255 255 0 255 0 255 0 0 255 0 255 0 255 255 0 0 255 0 
0 255 255 255 0 255 0 255 255 0 255 255 0 255 0 255 0 255 255 0 255 0 0 255 0 255 255 0 0 0 255 0 255 0 0 255 0 255 255 255 255 0 255 0 255 0 0 255 255 0 
0 0 255 0 0 255 255 0 255 255 0 255 0 255 0 255 0 255 0 255 255 255 0 255 0 255 0 255 255 0 255 0 255 255 0 255 0 0 255 0 255 0 255 0 255 255 0 255 0 0 
0 255 255 0 255 0 255 255 0 255 0 255 0 255 0 255 0 255 0 255 0 0 255 255 0 255 0 0 255 0 255 0 255 0 0 255 255 0 255 255 0 0 255 0 0 255 0 255 255 0 
0 0 255 255 255 0 0 255 0 255 0 255 0 255 255 255 0 255 0 255 255 0 255 0 0 255 255 0 255 0 255 0 255 0 255 0 255 255 0 255 255 0 255 255 0 255 0 0 255 0 
0 255 255 0 255 255 0 255 0 255 0 255 255 0 255 0 0 255 0 255 0 0 255 255 0 255 0 0 255 0 255 0 255 0 255 0 255 0 0 255 0 0 0 255 0 255 255 0 255 0 
0 0 255 255 0 0 255 255 0 255 255 0 255 0 255 0 0 255 0 255 255 0 0 255 0 255 255 255 255 0 255 0 255 255 255 0 255 255 0 255 0 0 0 255 0 255 0 0 255 0 
0 255 0 255 255 0 255 0 255 0 255 0 255 0 255 0 0 255 255 0 255 0 0 255 0 0 255 0 0 255 255 0 0 255 0 0 255 0 255 255 255 0 255 255 0 255 0 255 255 0 
0 255 0 255 0 0 255 255 255 0 255 0 255 0 255 255 0 0 255 255 255 255 0 255 0 255 255 0 255 255 0 0 255 255 255 0 255 0 255 0 0 255 255 0 0 255 0 255 0 0 
0 255 255 255 255 0 0 255 0 255 255 0 255 255 0 255 255 0 0 255 0 0 255 255 0 255 0 255 255 0 255 255 255 0 0 255 255 0 255 0 0 255 0 255 255 255 0 255 255 0 
0 0 255 0 255 0 0 255 0 255 0 0 0 255 0 255 0 0 255 0 0 255 255 0 255 255 0 255 0 255 255 0 0 255 255 255 0 255 255 0 255 255 0 255 0 255 0 0 255 0 
0 255 255 0 255 0 255 255 0 255 0 0 0 255 0 255 0 255 255 0 255 255 0 255 255 0 255 255 0 255 0 255 255 255 0 0 255 255 0 0 255 0 0 255 0 0 255 255 255 0 
0 255 0 255 255 0 255 0 255 255 255 0 255 255 0 255 0 255 0 255 255 0 255 255 0 255 255 0 0 255 0 255 0 0 255 255 255 0 255 0 255 255 0 255 255 0 255 0 255 0 
0 0 255 255 0 255 255 0 255 0 0 255 255 0 255 255 0 255 0 255 0 0 255 0 255 255 0 255 0 255 0 255 255 0 255 0 255 0 255 0 0 255 255 0 255 0 255 255 0 0 
0 255 255 0 255 255 0 0 255 255 0 255 0 0 255 0 0 255 0 255 255 0 255 0 255 0 255 255 0 255 0 255 0 255 255 0 255 0 255 255 0 255 0 0 255 0 0 255 255 0 
0 255 0 255 255 0 255 255 0 255 0 255 255 0 255 0 0 255 0 0 255 0 255 0 255 255 255 0 255 255 0 255 0 255 0 255 255 0 0 255 0 255 255 0 255 0 255 0 255 0 
0 255 0 255 0 255 255 0 0 255 0 0 255 0 255 0 255 255 255 0 255 255 255 0 0 255 0 255 255 0 255 255 0 255 0 0 255 255 0 255 255 0 255 0 255 255 255 0 255 0 
0 255 0 255 255 255 0 255 255 255 255 0 255 0 255 255 255 0 0 255 255 0 255 0 0 255 0 255 0 255 255 0 255 255 255 0 0 255 0 0 255 0 255 0 255 0 255 0 255 0 
0 0 0 0 255 0 255 255 0 0 0 0 255 255 255 0 0 0 255 255 0 255 255 255 0 255 255 255 0 255 0 255 255 0 255 0 255 255 255 255 255 0 255 255 255 255 0 0 255 0 
0 255 0 0 255 255 255 0 255 255 255 0 255 0 0 255 255 255 0 0 0 0 0 255 0 0 0 0 0 255 255 255 0 0 0 255 255 0 255 0 255 0 0 0 0 0 0 255 255 0 
100 255 255 255 0 0 0 255 255 0 255 0 0 255 255 255 0 255 255 0 255 255 255 0 0 255 255 255 255 0 0 0 255 255 255 0 0 0 0 0 0 255 255 255 0 255 255 255 0 0 
0 255 0 255 255 255 255 255 0 255 255 255 255 255 0 255 255 0 255 255 255 0 255 255 255 255 0 0 255 255 255 255 255 0 255 255 255 255 255 255 255 255 0 255 255 255 0 255 255 0 
0 0 0 0 0 0 0 0 0 0 0 0 0 0 0 0 0 0 0 0 0 0 0 0 0 0 0 0 0 0 0 0 0 0 0 0 0 0 0 0 0 0 0 0 0 0 0 0 0 0 
