P2
8 8
10
0  0  0  0  0  0  0  0
9  10 10 10 0  0  0  0
0  0  0  10 0  0  0  0
0  0  0  10 0  0  0  0
0  0  0  10 10 10 10 9
0  0  0  0  0  0  0  0
0  0  0  0  0  0  0  0
0  0  0  0  0  0  0  0
