P2
8 8
10
0  0  0  0  0  0  0  0
5  5  5  5  0  0  0  0
0  0  0  5  0  0  0  0
0  0  0  5  0  0  0  0
0  0  0  5  5  5  5  5  
0  0  0  0  0  0  0  0
0  0  0  0  0  0  0  0
0  0  0  0  0  0  0  0
