P2
24 11
255
   0   0   0   0   0   0   0   0   0   0   0   0   0   0   0   0   0   0   0   0   0   0   0   0
   0   0   0   0   0   0   0   0   0   0   0   0   0 150 150 150 150 150 150 150   0   0   0   0
   0   0   0   0   0   0   0   0   0   0   0   0   0 150   0   0   0   0   0 150   0   0   0   0
 150 150 150 150 150   0   0   0   0   0   0   0   0 150   0   0   0   0   0 150   0   0   0   0
   0   0   0   0 150   0   0   0   0   0   0   0   0 150   0   0   0   0   0 150   0   0   0   0
   0   0   0   0 150   0   0   0   0   0   0   0   0 150   0   0   0   0   0 150   0   0   0   0
   0   0   0   0 150   0   0   0   0   0   0   0   0 150   0   0   0   0   0 150   0   0   0   0
   0   0   0   0 150 150 150 150 150   0   0   0   0 150   0   0   0   0   0 150 150 150 150 150
   0   0   0   0   0   0   0   0 150   0   0   0   0 150   0   0   0   0   0   0   0   0   0   0
   0   0   0   0   0   0   0   0 150 150 150 150 150 150   0   0   0   0   0   0   0   0   0   0
   0   0   0   0   0   0   0   0   0   0   0   0   0   0   0   0   0   0   0   0   0   0   0   0
