P2
23 11
10
0 0 0 0 0 0 0 0 0 0 0 0 0 0 0 0 0 0 0 0 0 0 0
0 0 0 0 0 0 0 0 0 0 0 0 0 10 10 10 10 10 10 10 0 0 0
0 0 0 0 0 0 0 0 0 0 0 0 0 10 0 0 0 0 0 1 0 0 0
10 10 10 10 10 0 0 0 0 0 0 0 0 10 0 0 0 0 0 10 0 0 0
0 0 0 0 10 0 0 0 0 0 0 0 0 10 0 0 0 0 0 10 0 0 0
0 0 0 0 10 0 0 0 0 0 0 0 0 10 0 0 0 0 0 10 0 0 0
0 0 0 0 10 0 0 0 0 0 0 0 0 10 0 0 0 0 0 10 0 0 0
0 0 0 0 10 10 10 10 10 0 0 0 0 10 0 0 0 0 0 10 10 10 10
0 0 0 0 0 0 0 0 10 0 0 0 0 10 0 0 0 0 0 0 0 0 0
0 0 0 0 0 0 0 0 10 10 10 10 10 10 0 0 0 0 0 0 0 0 0
0 0 0 0 0 0 0 0 0 0 0 0 0 0 0 0 0 0 0 0 0 0 0