P2
8 8
255
   0   0   0   0   0   0   0   0
   0   0   0   0   0   0   0   0
   0   0   0   0   0   0   0   0
   0   0   0   0   0   0   0   0
   0   0   0 150 150 150 150 150
   0   0   0 150   0   0   0   0
 150 150 150 150   0   0   0   0
   0   0   0   0   0   0   0   0
