P2
4 4
255
   0   0 150   0
   0   0 150   0
 150 150 150   0
   0   0   0   0
