P2
8 8
255
0   0   0   0   0   0   0   0
100 255 0   0   0   0   0   0
0   255 0   0   0   0   0   0
0   255 0   0   0   0   0   0
0   255 255 255 255 0   0   0
0   0   0   0   255 0   0   0
200 255 255 255 255 0   0   0
0   0   0   0   0   0   0   0