P2
20 20
255
   0   0   0   0   0   0   0   0   0   0   0   0   0   0   0   0   0   0   0   0
   0   0   0   0   0 255 255 255   0   0   0 255 255 255   0 255 255 255   0   0
   0   0   0 255   0 255   0 255   0 255   0 255   0 255   0 255   0 255 255   0
   0   0 255 255   0 255   0 255   0 255   0 255   0 255   0 255   0   0 255   0
 200 255   0   0 255 255   0 255   0   0   0 255   0 255   0 255   0 255 255   0
   0 255 255   0 255   0   0 255 255   0 255 255   0 255   0 255   0 255   0   0
   0   0 255 255 255   0   0   0 255   0 255   0 255 255   0 255   0 255 255   0
   0 255   0   0   0   0   0 255 255   0 255   0 255   0 255 255   0   0 255   0
   0   0   0 255 255 255   0 255   0 255 255   0 255   0 255   0   0 255 255   0
   0 255   0 255   0   0   0 255   0 255   0   0 255   0 255   0   0 255   0   0
   0 255 255 255 255 255   0 255   0 255   0   0 255   0 255   0   0 255 255   0
   0   0   0 255   0   0 255 255   0 255   0   0 255   0 255   0 255   0 255   0
 100 255   0 255   0 255 255   0 255 255   0 255 255   0 255   0 255   0 255   0
   0 255   0   0 255 255   0 255 255   0 255 255   0   0 255   0 255   0 255   0
   0 255   0   0 255   0 255 255   0 255 255   0 255 255 255   0   0   0 255   0
   0 255   0   0 255 255 255   0   0 255   0 255 255   0   0   0   0   0 255   0
   0 255   0   0   0   0   0   0   0 255 255 255   0 255 255 255   0   0 255   0
   0 255 255   0 255 255 255   0   0   0   0   0   0 255   0 255   0   0 255   0
   0   0 255 255 255   0 255 255 255 255 255 255 255 255   0 255 255 255 255   0
   0   0   0   0   0   0   0   0   0   0   0   0   0   0   0   0   0   0   0   0
